<svg width="150" height="40" viewBox="0 0 150 40" fill="none" xmlns="http://www.w3.org/2000/svg">
  <!-- Icon (Hexagon) -->
  <g transform="translate(4, 0)">
    <!-- Green ribbon -->
    <path d="M2.5 15.5L20 5.4L37.5 15.5V26.5L30 22.2V19.8L20 14L10 19.8V22.2L2.5 17.8V15.5Z" fill="#69A03C"/>
    <path d="M10 19.8L20 25.6L30 19.8V22.2L20 28L10 22.2V19.8Z" fill="#69A03C"/>
    <!-- Orange/Yellow ribbon -->
    <path d="M2.5 24.5L20 34.6L37.5 24.5V19.8L30 24.2V26.6L20 32.4L10 26.6V24.2L2.5 19.8V24.5Z" fill="#E29424"/>
    <!-- Blue ribbon segment -->
    <path d="M2.5 17.8L10 22.2V24.2L2.5 19.8V17.8Z" fill="#1D4486"/>
  </g>

  <!-- Text -->
  <text x="48" y="22" font-family="system-ui, -apple-system, sans-serif" font-weight="800" font-size="19" letter-spacing="-0.5px">
    <tspan fill="#69A03C">edu</tspan><tspan fill="#E29424">genzi</tspan>
  </text>
  
  <!-- Tagline -->
  <text x="48" y="32" font-family="system-ui, -apple-system, sans-serif" font-weight="500" font-size="7.5" fill="#E5E7EB" letter-spacing="0.2px">
    Belajar Asyik, Cerdas Berkembang
  </text>
</svg>
